<svg xmlns="http://www.w3.org/2000/svg" version="1.1" xmlns:xlink="http://www.w3.org/1999/xlink" xmlns:svgjs="http://svgjs.dev/svgjs" viewBox="0 0 1422 800"><defs><filter id="llleaves-blur-2" x="-100%" y="-100%" width="400%" height="400%"><feGaussianBlur in="SourceGraphic" stdDeviation="2"></feGaussianBlur></filter><filter id="llleaves-blur-3" x="-100%" y="-100%" width="400%" height="400%"><feGaussianBlur in="SourceGraphic" stdDeviation="4"></feGaussianBlur></filter><filter id="llleaves-blur-4" x="-100%" y="-100%" width="400%" height="400%"><feGaussianBlur in="SourceGraphic" stdDeviation="12"></feGaussianBlur></filter></defs><g fill="hsl(28, 100%, 71%)"><path d="M1100 656H1150C1178 656 1200 678 1200 706H1150C1122 706 1100 684 1100 656Z " transform="matrix(-0.057756417768654394,0.25017053015000346,-0.25017053015000346,-0.057756417768654394,1386.7860114661048,432.6360108279497)" filter="url(#llleaves-blur-3)" opacity="0.39"></path><path d="M784 727H834C862 727 884 749 884 777H834C806 777 784 755 784 727Z " transform="matrix(-0.30971472239952386,0.13789387867463834,-0.13789387867463834,-0.30971472239952386,1195.998275244531,869.9019764297936)" filter="url(#llleaves-blur-2)" opacity="0.52"></path><path d="M1250 19H1300C1328 19 1350 41 1350 69H1300C1272 69 1250 47 1250 19Z " transform="matrix(-0.3845829384705594,-0.09588729597642634,0.09588729597642634,-0.3845829384705594,1795.7387789887644,185.57513406205885)" filter="url(#llleaves-blur-2)" opacity="0.61"></path><path d="M1007 449H1057C1085 449 1107 471 1107 499H1057C1029 499 1007 477 1007 449Z " transform="matrix(0.03135482673061715,0.22310118476963595,-0.22310118476963595,0.03135482673061715,1129.6079097265451,223.3198598281823)" filter="url(#llleaves-blur-3)" opacity="0.34"></path><path d="M1336 332H1386C1414 332 1436 354 1436 382H1386C1358 382 1336 360 1336 332Z " transform="matrix(-0.22723532337192037,-0.40994337504748934,0.40994337504748934,-0.22723532337192037,1554.598373301528,1006.3045282595958)" opacity="0.72"></path><path d="M1333 659H1383C1411 659 1433 681 1433 709H1383C1355 709 1333 687 1333 659Z " transform="matrix(-0.22723532337192037,-0.40994337504748934,0.40994337504748934,-0.22723532337192037,1416.8651836908832,1406.3806488770713)" opacity="0.72"></path><path d="M361 119H411C439 119 461 141 461 169H411C383 169 361 147 361 119Z " transform="matrix(-0.23097427236331664,0.2079701689646812,-0.2079701689646812,-0.23097427236331664,535.8781302722373,91.78455577583361)" filter="url(#llleaves-blur-2)" opacity="0.48"></path><path d="M708 378H758C786 378 808 400 808 428H758C730 428 708 406 708 378Z " transform="matrix(-0.38390146244371526,-0.11737045572589323,0.11737045572589323,-0.38390146244371526,1001.6970148748012,646.6790948050443)" opacity="0.62"></path><path d="M1329 737H1379C1407 737 1429 759 1429 787H1379C1351 787 1329 765 1329 737Z " transform="matrix(-0.22723532337192037,-0.40994337504748934,0.40994337504748934,-0.22723532337192037,1379.9806591436914,1500.4652305998914)" opacity="0.72"></path><path d="M618 225H668C696 225 718 247 718 275H668C640 275 618 253 618 225Z " transform="matrix(-0.3565984773767729,-0.23157775893114702,0.23157775893114702,-0.3565984773767729,848.3133431548976,493.84356231019945)" opacity="0.65"></path><path d="M550 485H600C628 485 650 507 650 535H600C572 535 550 513 550 485Z " transform="matrix(-0.36463290899316686,-0.21052090816260127,0.21052090816260127,-0.36463290899316686,711.4140822329736,822.275328484076)" opacity="0.65"></path><path d="M879 548H929C957 548 979 570 979 598H929C901 598 879 576 879 548Z " transform="matrix(-0.0866296662177508,0.2515908189590178,-0.2515908189590178,-0.0866296662177508,1153.6404991798076,388.91092792984364)" filter="url(#llleaves-blur-3)" opacity="0.41"></path><path d="M1247 458H1297C1325 458 1347 480 1347 508H1297C1269 508 1247 486 1247 458Z " transform="matrix(-0.38376990740571826,-0.06078318199785374,0.06078318199785374,-0.38376990740571826,1765.3912930002532,747.1966523281783)" filter="url(#llleaves-blur-2)" opacity="0.60"></path><path d="M1069 10H1119C1147 10 1169 32 1169 60H1119C1091 60 1069 38 1069 10Z " transform="matrix(-0.1115186750676883,0.2504750451791033,-0.2504750451791033,-0.1115186750676883,1252.5560239820118,-241.3784219280475)" filter="url(#llleaves-blur-3)" opacity="0.42"></path><path d="M197 556H247C275 556 297 578 297 606H247C219 606 197 584 197 556Z " transform="matrix(0.023888727035182186,0.2272860553601635,-0.2272860553601635,0.023888727035182186,373.152682586565,510.98099391859876)" filter="url(#llleaves-blur-3)" opacity="0.35"></path><path d="M689 730H739C767 730 789 752 789 780H739C711 780 689 758 689 730Z " transform="matrix(-0.3751603702369362,-0.1749401536777479,0.1749401536777479,-0.3751603702369362,884.1636975783963,1167.5268530967426)" opacity="0.64"></path><path d="M438 476H488C516 476 538 498 538 526H488C460 526 438 504 438 476Z " transform="matrix(-0.364113223881396,0.03826984194617427,-0.03826984194617427,-0.364113223881396,684.8604440691546,664.7450422948464)" filter="url(#llleaves-blur-2)" opacity="0.56"></path><path d="M500 238H550C578 238 600 260 600 288H550C522 288 500 266 500 238Z " transform="matrix(-0.3841585513607199,-0.11744905569568453,0.11744905569568453,-0.3841585513607199,730.3981016004309,428.6306796404958)" opacity="0.62"></path><path d="M911 458H961C989 458 1011 480 1011 508H961C933 508 911 486 911 458Z " transform="matrix(-0.025860672466026177,0.24604786287305253,-0.24604786287305253,-0.025860672466026177,1104.6932240075357,259.03870858008713)" filter="url(#llleaves-blur-3)" opacity="0.38"></path><path d="M665 545H715C743 545 765 567 765 595H715C687 595 665 573 665 545Z " transform="matrix(-0.3751603702369362,-0.1749401536777479,0.1749401536777479,-0.3751603702369362,883.5237771230932,908.9236209146434)" opacity="0.64"></path><path d="M1115 330H1165C1193 330 1215 352 1215 380H1165C1137 380 1115 358 1115 330Z " transform="matrix(-0.12154604389142093,0.249206320719346,-0.249206320719346,-0.12154604389142093,1395.0693849888733,107.82348194341637)" filter="url(#llleaves-blur-3)" opacity="0.42"></path><path d="M158 642H208C236 642 258 664 258 692H208C180 692 158 670 158 642Z " transform="matrix(0.016159098998409463,0.23108588178542122,-0.23108588178542122,0.016159098998409463,358.7731905592068,608.1560175566933)" filter="url(#llleaves-blur-3)" opacity="0.35"></path><path d="M294 550H344C372 550 394 572 394 600H344C316 600 294 578 294 550Z " transform="matrix(-0.04850757838044037,0.24954985716208913,-0.24954985716208913,-0.04850757838044037,504.1777748310727,517.0467067049946)" filter="url(#llleaves-blur-3)" opacity="0.39"></path><path d="M271 243H321C349 243 371 265 371 293H321C293 293 271 271 271 243Z " transform="matrix(-0.008375491383907628,0.23984269263845784,-0.23984269263845784,-0.008375491383907628,387.9663743613411,193.25512735394227)" filter="url(#llleaves-blur-3)" opacity="0.37"></path><path d="M1018 217H1068C1096 217 1118 239 1118 267H1068C1040 267 1018 245 1018 217Z " transform="matrix(0.020066093414853277,0.22935649724386803,-0.22935649724386803,0.020066093414853277,1102.0736845659528,-7.808733662845555)" filter="url(#llleaves-blur-3)" opacity="0.35"></path><path d="M531 653H581C609 653 631 675 631 703H581C553 703 531 681 531 653Z " transform="matrix(-0.37469816098511793,-0.1747246219639549,0.1747246219639549,-0.37469816098511793,680.2363378407921,1033.5603585089675)" opacity="0.63"></path><path d="M1167 17H1217C1245 17 1267 39 1267 67H1217C1189 67 1167 45 1167 17Z " transform="matrix(-0.3539898584739995,0.062417962946137134,-0.062417962946137134,-0.3539898584739995,1650.427212206595,-19.095086849540905)" filter="url(#llleaves-blur-2)" opacity="0.55"></path><path d="M967 145H1017C1045 145 1067 167 1067 195H1017C989 195 967 173 967 145Z " transform="matrix(0.016124683650540275,0.2305937193814353,-0.2305937193814353,0.016124683650540275,1039.8021290222446,-67.25500883151159)" filter="url(#llleaves-blur-3)" opacity="0.35"></path><path d="M64 10H114C142 10 164 32 164 60H114C86 60 64 38 64 10Z " transform="matrix(-0.09179772896912576,0.2522121874998885,-0.2522121874998885,-0.09179772896912576,133.29236766497644,9.460731138932115)" filter="url(#llleaves-blur-3)" opacity="0.41"></path><path d="M444 174H494C522 174 544 196 544 224H494C466 224 444 202 444 174Z " transform="matrix(-0.364113223881396,0.03826984194617427,-0.03826984194617427,-0.364113223881396,681.4876311446983,252.55322963098772)" filter="url(#llleaves-blur-2)" opacity="0.56"></path><path d="M-7 540H43C71 540 93 562 93 590H43C15 590 -7 568 -7 540Z " transform="matrix(-0.32731363011874554,0.11270312105596407,-0.11270312105596407,-0.32731363011874554,120.75174949172576,745.0859668116846)" filter="url(#llleaves-blur-2)" opacity="0.53"></path><path d="M1118 78H1168C1196 78 1218 100 1218 128H1168C1140 128 1118 106 1118 78Z " transform="matrix(-0.196834668877319,0.22643238452227615,-0.22643238452227615,-0.196834668877319,1421.225428854503,-141.19905422765467)" filter="url(#llleaves-blur-2)" opacity="0.46"></path><path d="M971 11H1021C1049 11 1071 33 1071 61H1021C993 61 971 39 971 11Z " transform="matrix(1.4558396852511044e-17,0.23775666359716396,-0.23775666359716396,1.4558396852511044e-17,1029.559239889498,-206.7495535327044)" filter="url(#llleaves-blur-3)" opacity="0.36"></path><path d="M859 263H909C937 263 959 285 959 313H909C881 313 859 291 859 263Z " transform="matrix(-0.16144397315598663,0.23935053320268446,-0.23935053320268446,-0.16144397315598663,1124.685525161165,116.92622958768399)" filter="url(#llleaves-blur-3)" opacity="0.44"></path><path d="M113 320H163C191 320 213 342 213 370H163C135 370 113 348 113 320Z " transform="matrix(-0.04848114056760927,0.2494138464059154,-0.2494138464059154,-0.04848114056760927,256.95020292256106,321.07153653166097)" filter="url(#llleaves-blur-3)" opacity="0.39"></path><path d="M1061 150H1111C1139 150 1161 172 1161 200H1111C1083 200 1061 178 1061 150Z " transform="matrix(-0.03466350067069861,0.24664362314413377,-0.24664362314413377,-0.03466350067069861,1192.6737832953695,-92.95495269576037)" filter="url(#llleaves-blur-3)" opacity="0.38"></path><path d="M483 411H533C561 411 583 433 583 461H533C505 461 483 439 483 411Z " transform="matrix(-0.38293126059222726,-0.04701804668781246,0.04701804668781246,-0.38293126059222726,716.6024935397709,628.018648502815)" filter="url(#llleaves-blur-2)" opacity="0.59"></path><path d="M70 87H120C148 87 170 109 170 137H120C92 137 70 115 70 87Z " transform="matrix(-0.034765881337335394,0.24737209943967864,-0.24737209943967864,-0.034765881337335394,151.87758089772424,86.20912677702013)" filter="url(#llleaves-blur-3)" opacity="0.38"></path><path d="M230 382H280C308 382 330 404 330 432H280C252 432 230 410 230 382Z " transform="matrix(0.016134599766366584,0.23073552644443027,-0.23073552644443027,0.016134599766366584,369.3916713283005,335.82727049064835)" filter="url(#llleaves-blur-3)" opacity="0.35"></path><path d="M1254 372H1304C1332 372 1354 394 1354 422H1304C1276 422 1254 400 1254 372Z " transform="matrix(-0.3690653258129329,-0.19623551463395306,0.19623551463395306,-0.3690653258129329,1707.355685550385,799.4100454304091)" opacity="0.64"></path><path d="M730 478H780C808 478 830 500 830 528H780C752 528 730 506 730 478Z " transform="matrix(-0.3821839383070735,-0.04016915056658927,0.04016915056658927,-0.3821839383070735,1057.8983891445228,726.5704584103976)" filter="url(#llleaves-blur-2)" opacity="0.59"></path><path d="M140 130H190C218 130 240 152 240 180H190C162 180 140 158 140 130Z " transform="matrix(0.016193275993934157,0.23157463559207697,-0.23157463559207697,0.016193275993934157,222.81734607792444,108.49086145844558)" filter="url(#llleaves-blur-3)" opacity="0.35"></path><path d="M191 730H241C269 730 291 752 291 780H241C213 780 191 758 191 730Z " transform="matrix(0.023888727035182186,0.2272860553601635,-0.2272860553601635,0.023888727035182186,406.8437885814445,682.188071746638)" filter="url(#llleaves-blur-3)" opacity="0.35"></path><path d="M834 640H884C912 640 934 662 934 690H884C856 690 834 668 834 640Z " transform="matrix(-0.24025351268296533,0.20159663388132226,-0.20159663388132226,-0.24025351268296533,1230.4458667428207,646.557161583083)" filter="url(#llleaves-blur-2)" opacity="0.48"></path><path d="M585 733H635C663 733 685 755 685 783H635C607 783 585 761 585 733Z " transform="matrix(-0.35633514027729984,-0.2314067458191786,0.2314067458191786,-0.35633514027729984,685.8665007451481,1175.0453199253716)" opacity="0.65"></path><path d="M299 8H349C377 8 399 30 399 58H349C321 58 299 36 299 8Z " transform="matrix(-0.10649733701894334,0.25089200337000733,-0.25089200337000733,-0.10649733701894334,394.44700673082144,-51.04689705450744)" filter="url(#llleaves-blur-3)" opacity="0.42"></path><path d="M1197 195H1247C1275 195 1297 217 1297 245H1247C1219 245 1197 223 1197 195Z " transform="matrix(-0.35182333420990836,0.0683875284655849,-0.0683875284655849,-0.35182333420990836,1700.7689540221845,212.1218855295955)" filter="url(#llleaves-blur-2)" opacity="0.55"></path><path d="M388 554H438C466 554 488 576 488 604H438C410 604 388 582 388 554Z " transform="matrix(-0.2584289493247402,0.1877596221521661,-0.1877596221521661,-0.2584289493247402,659.9047010303403,646.3916471563758)" filter="url(#llleaves-blur-2)" opacity="0.49"></path><path d="M638 334H688C716 334 738 356 738 384H688C660 384 638 362 638 334Z " transform="matrix(-0.3614951420727407,-0.21720819484128284,0.21720819484128284,-0.3614951420727407,858.7309157980251,638.2159940549166)" opacity="0.65"></path><path d="M512 98H562C590 98 612 120 612 148H562C534 148 512 126 512 98Z " transform="matrix(-0.3594120476217494,-0.2245855732658068,0.2245855732658068,-0.3594120476217494,736.3655452517289,293.4247740328586)" opacity="0.65"></path><path d="M781 202H831C859 202 881 224 881 252H831C803 252 781 230 781 202Z " transform="matrix(-0.30971472239952386,0.13789387867463834,-0.13789387867463834,-0.30971472239952386,1119.674844773147,182.71542880606745)" filter="url(#llleaves-blur-2)" opacity="0.52"></path><path d="M934 219H984C1012 219 1034 241 1034 269H984C956 269 934 247 934 219Z " transform="matrix(0.00816411857580056,0.2337897673683803,-0.2337897673683803,0.00816411857580056,1033.011210559297,11.958823977018426)" filter="url(#llleaves-blur-3)" opacity="0.36"></path><path d="M878 13H928C956 13 978 35 978 63H928C900 63 878 41 878 13Z " transform="matrix(-0.025804462016695586,0.24551305617198568,-0.24551305617198568,-0.025804462016695586,961.2760368860289,-188.85554657096824)" filter="url(#llleaves-blur-3)" opacity="0.38"></path><path d="M1043 286H1093C1121 286 1143 308 1143 336H1093C1065 336 1043 314 1043 286Z " transform="matrix(0.020066093414853277,0.22935649724386803,-0.22935649724386803,0.020066093414853277,1142.3976305404083,54.07279346043288)" filter="url(#llleaves-blur-3)" opacity="0.35"></path><path d="M1177 391H1227C1255 391 1277 413 1277 441H1227C1199 441 1177 419 1177 391Z " transform="matrix(-0.28495711303987165,0.16452006592106846,-0.16452006592106846,-0.28495711303987165,1645.0827251230871,332.6760381394356)" filter="url(#llleaves-blur-2)" opacity="0.50"></path><path d="M1189 290H1239C1267 290 1289 312 1289 340H1239C1211 340 1189 318 1189 290Z " transform="matrix(-0.28495711303987165,0.16452006592106846,-0.16452006592106846,-0.28495711303987165,1643.8856838215374,200.92112893135572)" filter="url(#llleaves-blur-2)" opacity="0.50"></path><path d="M782 302H832C860 302 882 324 882 352H832C804 352 782 330 782 302Z " transform="matrix(-0.30971472239952386,0.13789387867463834,-0.13789387867463834,-0.30971472239952386,1134.7739473630104,313.5490071673452)" filter="url(#llleaves-blur-2)" opacity="0.52"></path><path d="M945 382H995C1023 382 1045 404 1045 432H995C967 432 945 410 945 382Z " transform="matrix(0.00816411857580056,0.2337897673683803,-0.2337897673683803,0.00816411857580056,1082.0291373360092,171.05638520811078)" filter="url(#llleaves-blur-3)" opacity="0.36"></path><path d="M787 395H837C865 395 887 417 887 445H837C809 445 787 423 787 395Z " transform="matrix(-0.30971472239952386,0.13789387867463834,-0.13789387867463834,-0.30971472239952386,1154.1466516917494,434.6630069571277)" filter="url(#llleaves-blur-2)" opacity="0.52"></path><path d="M1074 509H1124C1152 509 1174 531 1174 559H1124C1096 559 1074 537 1074 509Z " transform="matrix(-0.008406288910765584,0.24072461841804965,-0.24072461841804965,-0.008406288910765584,1261.995614970939,267.914487176461)" filter="url(#llleaves-blur-3)" opacity="0.37"></path><path d="M344 463H394C422 463 444 485 444 513H394C366 513 344 491 344 463Z " transform="matrix(-0.18186079380043338,0.23277120124885564,-0.23277120124885564,-0.18186079380043338,579.2454989668123,485.03621408256237)" filter="url(#llleaves-blur-3)" opacity="0.45"></path><path d="M481 326H531C559 326 581 348 581 376H531C503 376 481 354 481 326Z " transform="matrix(-0.38293126059222726,-0.04701804668781246,0.04701804668781246,-0.38293126059222726,717.8331649870505,510.37545525910014)" filter="url(#llleaves-blur-2)" opacity="0.59"></path><path d="M378 20H428C456 20 478 42 478 70H428C400 70 378 48 378 20Z " transform="matrix(-0.37791793842578586,-0.013197185214563353,0.013197185214563353,-0.37791793842578586,589.155004311581,67.65470250099348)" filter="url(#llleaves-blur-2)" opacity="0.58"></path><path d="M703 272H753C781 272 803 294 803 322H753C725 322 703 300 703 272Z " transform="matrix(-0.38390146244371526,-0.11737045572589323,0.11737045572589323,-0.38390146244371526,1007.2187758695272,499.39868750738106)" opacity="0.62"></path><path d="M465 13H515C543 13 565 35 565 63H515C487 63 465 41 465 13Z " transform="matrix(-0.27447317058176873,-0.3642381996942717,0.3642381996942717,-0.27447317058176873,642.5126312612285,236.01265332465712)" opacity="0.70"></path><path d="M930 625H980C1008 625 1030 647 1030 675H980C952 675 930 653 930 625Z " transform="matrix(0.00816411857580056,0.2337897673683803,-0.2337897673683803,0.00816411857580056,1123.9625125851626,415.5793509047169)" filter="url(#llleaves-blur-3)" opacity="0.36"></path><path d="M867 168H917C945 168 967 190 967 218H917C889 218 867 196 867 168Z " transform="matrix(-0.16144397315598663,0.23935053320268446,-0.23935053320268446,-0.16144397315598663,1111.2387762921578,4.674247872243797)" filter="url(#llleaves-blur-3)" opacity="0.44"></path><path d="M156 395H206C234 395 256 417 256 445H206C178 445 156 423 156 395Z " transform="matrix(-0.008386478914391905,0.24015733434435935,-0.24015733434435935,-0.008386478914391905,308.59369508099564,374.0499102691066)" filter="url(#llleaves-blur-3)" opacity="0.37"></path><path d="M1245 728H1295C1323 728 1345 750 1345 778H1295C1267 778 1245 756 1245 728Z " transform="matrix(-0.38376990740571826,-0.06078318199785374,0.06078318199785374,-0.38376990740571826,1746.2122940460215,1120.6929609637264)" filter="url(#llleaves-blur-2)" opacity="0.60"></path><path d="M148 481H198C226 481 248 503 248 531H198C170 531 148 509 148 481Z " transform="matrix(-0.008386478914391905,0.24015733434435935,-0.24015733434435935,-0.008386478914391905,321.1801340032954,462.69240613049914)" filter="url(#llleaves-blur-3)" opacity="0.37"></path><path d="M-8 630H42C70 630 92 652 92 680H42C14 680 -8 658 -8 630Z " transform="matrix(-0.32731363011874554,0.11270312105596407,-0.11270312105596407,-0.32731363011874554,129.5677167566438,864.6568966434279)" filter="url(#llleaves-blur-2)" opacity="0.53"></path><path d="M218 14H268C296 14 318 36 318 64H268C240 64 218 42 218 14Z " transform="matrix(0.042149648439641293,0.21684114315189323,-0.21684114315189323,0.042149648439641293,265.16069880109995,-20.757262653853395)" filter="url(#llleaves-blur-3)" opacity="0.34"></path><path d="M792 17H842C870 17 892 39 892 67H842C814 67 792 45 792 17Z " transform="matrix(-0.1865996506947948,0.23043137805343603,-0.23043137805343603,-0.1865996506947948,1008.7950237632615,-144.18603499181174)" filter="url(#llleaves-blur-3)" opacity="0.45"></path><path d="M1261 632H1311C1339 632 1361 654 1361 682H1311C1283 682 1261 660 1261 632Z " transform="matrix(-0.3690653258129329,-0.19623551463395306,0.19623551463395306,-0.3690653258129329,1665.9179090262478,1156.7406787442094)" opacity="0.64"></path><path d="M730 632H780C808 632 830 654 830 682H780C752 682 730 660 730 632Z " transform="matrix(-0.3821839383070735,-0.04016915056658927,0.04016915056658927,-0.3821839383070735,1051.7123399572681,939.4267849096868)" filter="url(#llleaves-blur-2)" opacity="0.59"></path><path d="M480 733H530C558 733 580 755 580 783H530C502 783 480 761 480 733Z " transform="matrix(-0.38293126059222726,-0.04701804668781246,0.04701804668781246,-0.38293126059222726,697.3138887245186,1073.181460273449)" filter="url(#llleaves-blur-2)" opacity="0.59"></path><path d="M141 25H191C219 25 241 47 241 75H191C163 75 141 53 141 25Z " transform="matrix(0.070736068305755,0.19434575041106159,-0.19434575041106159,0.070736068305755,187.20669847415388,9.343158256199487)" filter="url(#llleaves-blur-3)" opacity="0.32"></path><path d="M356 207H406C434 207 456 229 456 257H406C378 257 356 235 356 207Z " transform="matrix(-0.18186079380043338,0.23277120124885564,-0.23277120124885564,-0.18186079380043338,533.8384009727105,179.68659645466514)" filter="url(#llleaves-blur-3)" opacity="0.45"></path><path d="M1095 421H1145C1173 421 1195 443 1195 471H1145C1117 471 1095 449 1095 421Z " transform="matrix(-0.057756417768654394,0.25017053015000346,-0.25017053015000346,-0.057756417768654394,1322.707154792011,185.3141053030659)" filter="url(#llleaves-blur-3)" opacity="0.39"></path><path d="M1142 573H1192C1220 573 1242 595 1242 623H1192C1164 623 1142 601 1142 573Z " transform="matrix(-0.20184793860805025,0.22417484671057522,-0.22417484671057522,-0.20184793860805025,1566.6593011537198,451.4886500086084)" filter="url(#llleaves-blur-2)" opacity="0.46"></path><path d="M1235 548H1285C1313 548 1335 570 1335 598H1285C1257 598 1235 576 1235 548Z " transform="matrix(-0.38376990740571826,-0.06078318199785374,0.06078318199785374,-0.38376990740571826,1743.3155677315776,871.0065458107185)" filter="url(#llleaves-blur-2)" opacity="0.60"></path></g><g fill="none" stroke-width="3" stroke="hsl(28, 100%, 71%)"><path d="M281 158H331C359 158 381 180 381 208H331C303 208 281 186 281 158Z " transform="matrix(-0.04850757838044037,0.24954985716208913,-0.24954985716208913,-0.04850757838044037,392.7236323045881,109.2758841229691)" filter="url(#llleaves-blur-3)" opacity="0.39"></path><path d="M579 573H629C657 573 679 595 679 623H629C601 623 579 601 579 573Z " transform="matrix(-0.35633514027729984,-0.2314067458191786,0.2314067458191786,-0.35633514027729984,714.7535692345527,956.6432570060887)" opacity="0.65"></path><path d="M-12 441H38C66 441 88 463 88 491H38C10 491 -12 469 -12 441Z " transform="matrix(-0.32731363011874554,0.11270312105596407,-0.11270312105596407,-0.32731363011874554,102.95757235659158,614.2454330352087)" filter="url(#llleaves-blur-2)" opacity="0.53"></path><path d="M70 174H120C148 174 170 196 170 224H120C92 224 70 202 70 174Z " transform="matrix(-0.10643568367642302,0.2507467571971699,-0.2507467571971699,-0.10643568367642302,182.67088672340756,190.0910901879478)" filter="url(#llleaves-blur-3)" opacity="0.42"></path><path d="M1324 160H1374C1402 160 1424 182 1424 210H1374C1346 210 1324 188 1324 160Z " transform="matrix(-0.22723532337192037,-0.40994337504748934,0.40994337504748934,-0.22723532337192037,1610.381809929233,790.3007321390555)" opacity="0.72"></path><path d="M974 534H1024C1052 534 1074 556 1074 584H1024C996 584 974 562 974 534Z " transform="matrix(0.027599775032515986,0.22478212919897392,-0.22478212919897392,0.027599775032515986,1121.39104058893,313.39482545707426)" filter="url(#llleaves-blur-3)" opacity="0.35"></path><path d="M-16 271H34C62 271 84 293 84 321H34C6 321 -16 299 -16 271Z " transform="matrix(-0.32731363011874554,0.11270312105596407,-0.11270312105596407,-0.32731363011874554,78.4887872566027,389.05292839924596)" filter="url(#llleaves-blur-2)" opacity="0.53"></path><path d="M57 263H107C135 263 157 285 157 313H107C79 313 57 291 57 263Z " transform="matrix(-0.17721749825224975,0.235175563356172,-0.235175563356172,-0.17721749825224975,193.69283455956827,313.8748542175375)" filter="url(#llleaves-blur-3)" opacity="0.45"></path><path d="M628 19H678C706 19 728 41 728 69H678C650 69 628 47 628 19Z " transform="matrix(-0.33749239142818466,-0.2732959499033435,0.2732959499033435,-0.33749239142818466,894.794819592562,244.14431925730702)" opacity="0.67"></path><path d="M396 374H446C474 374 496 396 496 424H446C418 424 396 402 396 374Z " transform="matrix(-0.320731852226926,0.12311742296021051,-0.12311742296021051,-0.320731852226926,638.1702578543329,472.0616383982896)" filter="url(#llleaves-blur-2)" opacity="0.53"></path><path d="M565 387H615C643 387 665 409 665 437H615C587 437 565 415 565 387Z " transform="matrix(-0.36463290899316686,-0.21052090816260127,0.21052090816260127,-0.36463290899316686,752.5146248678059,691.6991170251845)" opacity="0.65"></path><path d="M678 96H728C756 96 778 118 778 146H728C700 146 678 124 678 96Z " transform="matrix(-0.3837827206361835,-0.11004792427638718,0.11004792427638718,-0.3837827206361835,994.0780217856989,247.55259807018808)" filter="url(#llleaves-blur-2)" opacity="0.61"></path><path d="M285 730H335C363 730 385 752 385 780H335C307 780 285 758 285 730Z " transform="matrix(-0.04850757838044037,0.24954985716208913,-0.24954985716208913,-0.04850757838044037,539.6601809148249,708.0240195279326)" filter="url(#llleaves-blur-3)" opacity="0.39"></path><path d="M966 734H1016C1044 734 1066 756 1066 784H1016C988 784 966 762 966 734Z " transform="matrix(0.027599775032515986,0.22478212919897392,-0.22478212919897392,0.027599775032515986,1158.568264628985,509.6731274841628)" filter="url(#llleaves-blur-3)" opacity="0.35"></path><path d="M1324 87H1374C1402 87 1424 109 1424 137H1374C1346 137 1324 115 1324 87Z " transform="matrix(-0.3184771176411594,-0.3075497775389796,0.3075497775389796,-0.3184771176411594,1777.1419845545872,570.2428315143679)" opacity="0.68"></path><path d="M62 485H112C140 485 162 507 162 535H112C84 535 62 513 62 485Z " transform="matrix(-0.17721749825224975,0.235175563356172,-0.235175563356172,-0.17721749825224975,251.78789711589965,574.0412610127561)" filter="url(#llleaves-blur-3)" opacity="0.45"></path><path d="M864 359H914C942 359 964 381 964 409H914C886 409 864 387 864 359Z " transform="matrix(-0.16144397315598663,0.23935053320268446,-0.23935053320268446,-0.16144397315598663,1153.4703962144026,227.22809834464528)" filter="url(#llleaves-blur-3)" opacity="0.44"></path><path d="M757 110H807C835 110 857 132 857 160H807C779 160 757 138 757 110Z " transform="matrix(-0.319601686995392,0.12268359317417712,-0.12268359317417712,-0.319601686995392,1081.4808464837952,79.14056805281697)" filter="url(#llleaves-blur-2)" opacity="0.52"></path><path d="M-10 188H40C68 188 90 210 90 238H40C12 238 -10 216 -10 188Z " transform="matrix(-0.32731363011874554,0.11270312105596407,-0.11270312105596407,-0.32731363011874554,77.09830998967016,278.2096783730542)" filter="url(#llleaves-blur-2)" opacity="0.53"></path><path d="M292 77H342C370 77 392 99 392 127H342C314 127 292 105 292 77Z " transform="matrix(-0.07202263279721142,0.25117276990044524,-0.25117276990044524,-0.07202263279721142,392.2513629464917,23.445221239363306)" filter="url(#llleaves-blur-3)" opacity="0.40"></path><path d="M244 469H294C322 469 344 491 344 519H294C266 519 244 497 244 469Z " transform="matrix(0.016134599766366584,0.23073552644443027,-0.23073552644443027,0.016134599766366584,403.2397777322368,418.1932629407524)" filter="url(#llleaves-blur-3)" opacity="0.35"></path><path d="M1062 736H1112C1140 736 1162 758 1162 786H1112C1084 786 1062 764 1062 736Z " transform="matrix(-0.008406288910765584,0.24072461841804965,-0.24072461841804965,-0.008406288910765584,1304.5392278849072,499.7114101802214)" filter="url(#llleaves-blur-3)" opacity="0.37"></path><path d="M712 17H762C790 17 812 39 812 67H762C734 67 712 45 712 17Z " transform="matrix(-0.3656178900998727,0.031987420566006196,-0.031987420566006196,-0.3656178900998727,1041.9443039198752,32.98153691289794)" filter="url(#llleaves-blur-2)" opacity="0.56"></path><path d="M381 730H431C459 730 481 752 481 780H431C403 780 381 758 381 730Z " transform="matrix(-0.2584289493247402,0.1877596221521661,-0.1877596221521661,-0.2584289493247402,684.1413918838485,869.1894595925952)" filter="url(#llleaves-blur-2)" opacity="0.49"></path><path d="M1332 12H1382C1410 12 1432 34 1432 62H1382C1354 62 1332 40 1332 12Z " transform="matrix(-0.34796889328429703,-0.25281419939400074,0.25281419939400074,-0.34796889328429703,1853.5388851413206,399.264072614028)" opacity="0.66"></path><path d="M305 381H355C383 381 405 403 405 431H355C327 431 305 409 305 381Z " transform="matrix(-0.04850757838044037,0.24954985716208913,-0.24954985716208913,-0.04850757838044037,473.5374323328645,337.10387752991716)" filter="url(#llleaves-blur-3)" opacity="0.39"></path><path d="M1042 589H1092C1120 589 1142 611 1142 639H1092C1064 639 1042 617 1042 589Z " transform="matrix(0.020066093414853277,0.22935649724386803,-0.22935649724386803,0.020066093414853277,1210.9127152987153,351.22212365297617)" filter="url(#llleaves-blur-3)" opacity="0.35"></path><path d="M1331 415H1381C1409 415 1431 437 1431 465H1381C1353 465 1331 443 1331 415Z " transform="matrix(-0.22723532337192037,-0.40994337504748934,0.40994337504748934,-0.22723532337192037,1514.4368965557267,1106.1153432242277)" opacity="0.72"></path><path d="M639 446H689C717 446 739 468 739 496H689C661 496 639 474 639 446Z " transform="matrix(-0.3614951420727407,-0.21720819484128284,0.21720819484128284,-0.3614951420727407,835.765093117874,790.9206581619047)" opacity="0.65"></path><path d="M1327 496H1377C1405 496 1427 518 1427 546H1377C1349 546 1327 524 1327 496Z " transform="matrix(-0.22723532337192037,-0.40994337504748934,0.40994337504748934,-0.22723532337192037,1476.3225418833924,1203.8816309171634)" opacity="0.72"></path><path d="M879 726H929C957 726 979 748 979 776H929C901 776 879 754 879 726Z " transform="matrix(-0.0866296662177508,0.2515908189590178,-0.2515908189590178,-0.0866296662177508,1198.423664954513,582.3310085166033)" filter="url(#llleaves-blur-3)" opacity="0.41"></path><path d="M1228 107H1278C1306 107 1328 129 1328 157H1278C1250 157 1228 135 1228 107Z " transform="matrix(-0.38415809152309593,-0.053989898840333624,0.053989898840333624,-0.38415809152309593,1761.8273743195928,251.70795879899504)" filter="url(#llleaves-blur-2)" opacity="0.59"></path><path d="M210 300H260C288 300 310 322 310 350H260C232 350 210 328 210 300Z " transform="matrix(0.023888727035182186,0.2272860553601635,-0.2272860553601635,0.023888727035182186,327.65689896290576,258.1417893199233)" filter="url(#llleaves-blur-3)" opacity="0.35"></path><path d="M549 19H599C627 19 649 41 649 69H599C571 69 549 47 549 19Z " transform="matrix(-0.24559003676327448,-0.39302621582072905,0.39302621582072905,-0.24559003676327448,728.8152785250893,290.2286648942008)" opacity="0.71"></path><path d="M1144 147H1194C1222 147 1244 169 1244 197H1194C1166 197 1144 175 1144 147Z " transform="matrix(-0.22160987219279568,0.21400616596301308,-0.21400616596301308,-0.22160987219279568,1495.4112479438365,-45.406464142676754)" filter="url(#llleaves-blur-2)" opacity="0.47"></path><path d="M826 468H876C904 468 926 490 926 518H876C848 518 826 496 826 468Z " transform="matrix(-0.24025351268296533,0.20159663388132226,-0.20159663388132226,-0.24025351268296533,1185.8492176137695,434.8463304726636)" filter="url(#llleaves-blur-2)" opacity="0.48"></path><path d="M1267 294H1317C1345 294 1367 316 1367 344H1317C1289 344 1267 322 1267 294Z " transform="matrix(-0.3690653258129329,-0.19623551463395306,0.19623551463395306,-0.3690653258129329,1740.4599049274016,695.1740117072418)" opacity="0.64"></path><path d="M1155 734H1205C1233 734 1255 756 1255 784H1205C1177 784 1155 762 1155 734Z " transform="matrix(-0.20184793860805025,0.22417484671057522,-0.22417484671057522,-0.20184793860805025,1618.3754746760271,642.071895117267)" filter="url(#llleaves-blur-2)" opacity="0.46"></path><path d="M-4 728H46C74 728 96 750 96 778H46C18 778 -4 756 -4 728Z " transform="matrix(-0.32731363011874554,0.11270312105596407,-0.11270312105596407,-0.32731363011874554,145.92187714060324,994.282819910841)" filter="url(#llleaves-blur-2)" opacity="0.53"></path><path d="M-10 106H40C68 106 90 128 90 156H40C12 156 -10 134 -10 106Z " transform="matrix(-0.316646213211981,0.12793337444903113,-0.12793337444903113,-0.316646213211981,69.42512058130231,167.36331895280827)" filter="url(#llleaves-blur-2)" opacity="0.52"></path><path d="M93 568H143C171 568 193 590 193 618H143C115 618 93 596 93 568Z " transform="matrix(-0.10643568367642302,0.2507467571971699,-0.2507467571971699,-0.10643568367642302,306.9131297836502,620.2595741409235)" filter="url(#llleaves-blur-3)" opacity="0.42"></path><path d="M327 301H377C405 301 427 323 427 351H377C349 351 327 329 327 301Z " transform="matrix(-0.10671698910653502,0.2514094712602183,-0.2514094712602183,-0.10671698910653502,499.1917925239949,266.0083677836281)" filter="url(#llleaves-blur-3)" opacity="0.42"></path><path d="M1019 77H1069C1097 77 1119 99 1119 127H1069C1041 127 1019 105 1019 77Z " transform="matrix(-0.03479092135314775,0.24755026841003794,-0.24755026841003794,-0.03479092135314775,1131.4416223043388,-159.08256295230944)" filter="url(#llleaves-blur-3)" opacity="0.38"></path><path d="M1163 484H1213C1241 484 1263 506 1263 534H1213C1185 534 1163 512 1163 484Z " transform="matrix(-0.20184793860805025,0.22417484671057522,-0.22417484671057522,-0.20184793860805025,1571.9465465072476,339.8165116915699)" filter="url(#llleaves-blur-2)" opacity="0.46"></path><path d="M603 114H653C681 114 703 136 703 164H653C625 164 603 142 603 114Z " transform="matrix(-0.3625732257346765,-0.21785597285775707,0.21785597285775707,-0.3625732257346765,859.4783361775155,331.65762865323535)" opacity="0.65"></path><path d="M1329 574H1379C1407 574 1429 596 1429 624H1379C1351 624 1329 602 1329 574Z " transform="matrix(-0.22723532337192037,-0.40994337504748934,0.40994337504748934,-0.22723532337192037,1446.8014292764321,1300.4258728902682)" opacity="0.72"></path><path d="M833 95H883C911 95 933 117 933 145H883C855 145 833 123 833 95Z " transform="matrix(-0.19150712154143254,0.22822930010437822,-0.22822930010437822,-0.19150712154143254,1079.4883043336101,-58.54561740719407)" filter="url(#llleaves-blur-3)" opacity="0.46"></path><path d="M919 84H969C997 84 1019 106 1019 134H969C941 134 919 112 919 84Z " transform="matrix(-0.02137926440968373,0.24436611039724895,-0.24436611039724895,-0.02137926440968373,1016.3524132462836,-125.46042115427875)" filter="url(#llleaves-blur-3)" opacity="0.37"></path><path d="M950 299H1000C1028 299 1050 321 1050 349H1000C972 349 950 327 950 299Z " transform="matrix(0.00816411857580056,0.2337897673683803,-0.2337897673683803,0.00816411857580056,1067.5837660515547,87.5650582130603)" filter="url(#llleaves-blur-3)" opacity="0.36"></path><path d="M564 293H614C642 293 664 315 664 343H614C586 343 564 321 564 293Z " transform="matrix(-0.36463290899316686,-0.21052090816260127,0.21052090816260127,-0.36463290899316686,770.9389573260972,563.2131026716643)" opacity="0.65"></path><path d="M691 180H741C769 180 791 202 791 230H741C713 230 691 208 691 180Z " transform="matrix(-0.3751603702369362,-0.1749401536777479,0.1749401536777479,-0.3751603702369362,983.1311028416313,411.5385297737832)" opacity="0.64"></path><path d="M1028 363H1078C1106 363 1128 385 1128 413H1078C1050 413 1028 391 1028 363Z " transform="matrix(0.020066093414853277,0.22935649724386803,-0.22935649724386803,0.020066093414853277,1145.3590722294089,132.9680517261472)" filter="url(#llleaves-blur-3)" opacity="0.35"></path><path d="M96 735H146C174 735 196 757 196 785H146C118 785 96 763 96 735Z " transform="matrix(-0.10643568367642302,0.2507467571971699,-0.2507467571971699,-0.10643568367642302,352.10714528660685,804.2820930432947)" filter="url(#llleaves-blur-3)" opacity="0.42"></path><path d="M-12 19H38C66 19 88 41 88 69H38C10 69 -12 47 -12 19Z " transform="matrix(-0.3054370330789861,0.14242762760887287,-0.14242762760887287,-0.3054370330789861,55.873422871791874,52.026979606338216)" filter="url(#llleaves-blur-2)" opacity="0.52"></path><path d="M1187 649H1237C1265 649 1287 671 1287 699H1237C1209 699 1187 677 1187 649Z " transform="matrix(-0.28495711303987165,0.16452006592106846,-0.16452006592106846,-0.28495711303987165,1700.3784732611216,662.5497726445118)" filter="url(#llleaves-blur-2)" opacity="0.50"></path><path d="M1005 664H1055C1083 664 1105 686 1105 714H1055C1027 714 1005 692 1005 664Z " transform="matrix(0.03135482673061715,0.22310118476963595,-0.22310118476963595,0.03135482673061715,1175.637374105478,432.02477445063886)" filter="url(#llleaves-blur-3)" opacity="0.34"></path><path d="M210 97H260C288 97 310 119 310 147H260C232 147 210 125 210 97Z " transform="matrix(0.05243789075786797,0.21031689244649218,-0.21031689244649218,0.05243789075786797,272.02480928142637,60.92018529145214)" filter="url(#llleaves-blur-3)" opacity="0.33"></path><path d="M781 557H831C859 557 881 579 881 607H831C803 607 781 585 781 557Z " transform="matrix(-0.30971472239952386,0.13789387867463834,-0.13789387867463834,-0.30971472239952386,1168.6271717026439,647.6641552578984)" filter="url(#llleaves-blur-2)" opacity="0.52"></path><path d="M204 191H254C282 191 304 213 304 241H254C226 241 204 219 204 191Z " transform="matrix(0.023888727035182186,0.2272860553601635,-0.2272860553601635,0.023888727035182186,297.0260512908591,153.10937689891912)" filter="url(#llleaves-blur-3)" opacity="0.35"></path><path d="M486 560H536C564 560 586 582 586 610H536C508 610 486 588 486 560Z " transform="matrix(-0.3841585513607199,-0.11744905569568453,0.11744905569568453,-0.3841585513607199,673.2012859473705,872.685446398908)" opacity="0.62"></path><path d="M340 640H390C418 640 440 662 440 690H390C362 690 340 668 340 640Z " transform="matrix(-0.18186079380043338,0.23277120124885564,-0.23277120124885564,-0.18186079380043338,615.718558412658,695.1566593902345)" filter="url(#llleaves-blur-3)" opacity="0.45"></path><path d="M432 89H482C510 89 532 111 532 139H482C454 139 432 117 432 89Z " transform="matrix(-0.3808910189508505,-0.13863299339743354,0.13863299339743354,-0.3808910189508505,649.7853098870025,224.24267897795994)" opacity="0.62"></path><path d="M70 655H120C148 655 170 677 170 705H120C92 705 70 683 70 655Z " transform="matrix(-0.10643568367642302,0.2507467571971699,-0.2507467571971699,-0.10643568367642302,303.28007693524626,722.2866540363073)" filter="url(#llleaves-blur-3)" opacity="0.42"></path><path d="M547 174H597C625 174 647 196 647 224H597C569 224 547 202 547 174Z " transform="matrix(-0.36463290899316686,-0.21052090816260127,0.21052090816260127,-0.36463290899316686,772.792185944563,397.24293106271307)" opacity="0.65"></path><path d="M140 234H190C218 234 240 256 240 284H190C162 284 140 262 140 234Z " transform="matrix(-0.008386478914391905,0.24015733434435935,-0.24015733434435935,-0.008386478914391905,253.79418058892355,215.54220451339924)" filter="url(#llleaves-blur-3)" opacity="0.37"></path><path d="M-1 350H49C77 350 99 372 99 400H49C21 400 -1 378 -1 350Z " transform="matrix(-0.32731363011874554,0.11270312105596407,-0.11270312105596407,-0.32731363011874554,107.30203827180506,492.22015836278734)" filter="url(#llleaves-blur-2)" opacity="0.53"></path><path d="M71 399H121C149 399 171 421 171 449H121C93 449 71 427 71 399Z " transform="matrix(-0.10643568367642302,0.2507467571971699,-0.2507467571971699,-0.10643568367642302,240.1953427764472,438.7883722579458)" filter="url(#llleaves-blur-3)" opacity="0.42"></path><path d="M1262 213H1312C1340 213 1362 235 1362 263H1312C1284 263 1262 241 1262 213Z " transform="matrix(-0.3690653258129329,-0.19623551463395306,0.19623551463395306,-0.3690653258129329,1749.5096549836871,583.2985427432244)" opacity="0.64"></path><path d="M1115 233H1165C1193 233 1215 255 1215 283H1165C1137 283 1115 261 1115 233Z " transform="matrix(-0.12154604389142093,0.249206320719346,-0.249206320719346,-0.12154604389142093,1370.8963718790967,-0.9664843140514563)" filter="url(#llleaves-blur-3)" opacity="0.42"></path><path d="M249 640H299C327 640 349 662 349 690H299C271 690 249 668 249 640Z " transform="matrix(-0.008375491383907628,0.23984269263845784,-0.23984269263845784,-0.008375491383907628,460.9996625283628,598.8567366713996)" filter="url(#llleaves-blur-3)" opacity="0.37"></path><path d="M413 272H463C491 272 513 294 513 322H463C435 322 413 300 413 272Z " transform="matrix(-0.320731852226926,0.12311742296021051,-0.12311742296021051,-0.320731852226926,648.0647222002492,335.25399328081954)" filter="url(#llleaves-blur-2)" opacity="0.53"></path><path d="M434 643H484C512 643 534 665 534 693H484C456 693 434 671 434 643Z " transform="matrix(-0.364113223881396,0.03826984194617427,-0.03826984194617427,-0.364113223881396,685.7950547786402,892.7050300508243)" filter="url(#llleaves-blur-2)" opacity="0.56"></path><path d="M636 648H686C714 648 736 670 736 698H686C658 698 636 676 636 648Z " transform="matrix(-0.3614951420727407,-0.21720819484128284,0.21720819484128284,-0.3614951420727407,787.8045523337167,1065.2910522760744)" opacity="0.65"></path><path d="M1337 243H1387C1415 243 1437 265 1437 293H1387C1359 293 1337 271 1337 243Z " transform="matrix(-0.22723532337192037,-0.40994337504748934,0.40994337504748934,-0.22723532337192037,1592.3105690041266,897.4905278545424)" opacity="0.72"></path></g></svg>